<?xml version="1.0" encoding="UTF-8"?>
<svg data-bbox="17.234 55.998 565.09 57.281" height="200" viewBox="0 0 600 150" width="800" xmlns="http://www.w3.org/2000/svg" data-type="color">
    <g>
        <path d="M103.399 99.482H92.93l-5.484-10.125q-1.314-2.468-2.656-3.734c-.887-.844-1.903-1.32-3.047-1.438h-2.5v15.297h-9.266v-41.14h14.688q7.481.002 11.218 2.921 3.75 2.909 3.75 8.735-.002 4.097-2.406 7.062-2.409 2.97-6.594 4.375v.125c1.22.375 2.36 1.18 3.422 2.406a23.4 23.4 0 0 1 2.719 3.813ZM79.243 65.295v11.89h4.015q3.013 0 4.813-1.797 1.811-1.811 1.812-4.484c0-1.875-.539-3.274-1.609-4.203-1.062-.938-2.68-1.406-4.844-1.406Zm0 0" fill="#2D5A73" data-color="1"/>
        <path d="M133.835 87.373H114.68q.232 3.188 2.14 4.734 1.904 1.547 5.266 1.547 1.248 0 3.469-.75c1.488-.508 2.93-1.313 4.328-2.406l4.016 5.14q-3.017 2.379-6.203 3.469-3.175 1.092-7.016 1.094-7.125 0-11.063-3.938c-2.617-2.633-3.921-6.304-3.921-11.015 0-4.676 1.382-8.489 4.156-11.438 2.781-2.945 6.289-4.422 10.531-4.422q6.106 0 9.781 3.688 3.67 3.689 3.672 10.719Zm-8.406-5.563c0-2.27-.43-3.89-1.281-4.86-.844-.968-2.118-1.452-3.813-1.452q-2.189.002-3.781 1.703-1.596 1.69-1.938 4.61Zm0 0" fill="#2D5A73" data-color="1"/>
        <path d="m136.28 96.935 3.702-6.031q1.483 1.142 3.516 1.984c1.363.555 2.879.828 4.547.828 1.164 0 2.117-.21 2.86-.64.75-.438 1.124-1.07 1.124-1.906q0-1.014-.828-1.594-.813-.593-3.25-1.11-5.471-1.136-7.937-3.234c-1.649-1.395-2.469-3.395-2.469-6q0-4.483 3.563-7.156 3.575-2.686 8.734-2.688 2.701 0 5.14.703a16.2 16.2 0 0 1 4.5 2.079l-3.406 5.828q-1.752-1.124-3.328-1.657a10.2 10.2 0 0 0-3.25-.53q-1.751.002-2.828.671-1.064.656-1.062 1.688c0 .804.351 1.382 1.062 1.734q1.06.533 3.953 1.11 5.108 1.03 7.281 3.234 2.187 2.191 2.188 5.906-.001 4.516-3.406 7.281-3.392 2.766-9.016 2.766-3.063-.001-5.875-.781-2.798-.798-5.516-2.485m0 0" fill="#2D5A73" data-color="1"/>
        <path d="M179.082 100.2c-4.899 0-8.75-1.374-11.563-4.124-2.812-2.758-4.21-6.485-4.187-11.172q.028-7.278 4.375-11.39 4.34-4.126 11.78-4.126c4.876 0 8.696 1.371 11.47 4.11q4.155 4.094 4.156 10.89-.001 7.299-4.297 11.563-4.283 4.252-11.734 4.25m.28-6.937q3.281.002 4.891-2.172 1.624-2.184 1.625-6.53 0-4.093-1.64-6.157-1.63-2.076-4.922-2.078c-2.149 0-3.813.746-5 2.234q-1.768 2.22-1.766 6.234 0 4.252 1.703 6.36 1.7 2.11 5.11 2.11m0 0" fill="#2D5A73" data-color="1"/>
        <path d="M229.376 99.482h-9.032V83.154q0-3.405-1.219-5.11c-.812-1.144-2.039-1.718-3.671-1.718q-2.345 0-3.875 1.812-1.517 1.816-1.516 4.594v16.75h-9.062V70.107h9.062v4.64h.125q1.624-2.683 3.969-4.015 2.356-1.343 5.468-1.344 4.875.001 7.313 3.031 2.438 3.02 2.438 9.079Zm0 0" fill="#2D5A73" data-color="1"/>
        <path d="M260.984 99.482h-8.578v-4.219h-.11q-1.47 2.473-3.656 3.703c-1.46.82-3.12 1.235-4.984 1.235q-3.816.002-6.547-2.328-2.735-2.344-2.734-6.563c0-2.719.898-4.937 2.703-6.656 1.812-1.719 4.64-2.836 8.484-3.36l6.906-.921v-.563q-.001-2.092-1.343-3.172c-.899-.719-2.141-1.078-3.735-1.078q-1.799 0-4.031.61c-1.48.398-2.984 1.03-4.516 1.906l-3.062-5.36q2.999-1.746 5.969-2.53 2.964-.798 6.468-.798c4.383 0 7.61 1.043 9.672 3.125q3.094 3.127 3.094 9.406Zm-8.516-11.937v-1.97l-5.328.688q-2.22.284-3.328 1.328-1.094 1.05-1.094 2.657c0 1.03.36 1.882 1.079 2.546q1.077.985 2.906.985 2.562.002 4.156-1.766c1.07-1.176 1.61-2.664 1.61-4.469m0 0" fill="#2D5A73" data-color="1"/>
        <path d="M296.538 99.482h-9.032V83.154q0-3.405-1.218-5.11c-.813-1.144-2.04-1.718-3.672-1.718q-2.346 0-3.875 1.812-1.517 1.816-1.516 4.594v16.75h-9.062V70.107h9.062v4.64h.125q1.624-2.683 3.969-4.015 2.356-1.343 5.469-1.344 4.875.001 7.312 3.031 2.438 3.02 2.438 9.079Zm0 0" fill="#2D5A73" data-color="1"/>
        <path d="M327.318 97.638q-2.331 1.329-4.61 1.938-2.266.623-4.968.625-7.454 0-11.625-4.094c-2.774-2.738-4.156-6.27-4.156-10.594q-.001-7.483 4.421-11.797c2.957-2.882 6.88-4.328 11.766-4.328 1.852 0 3.469.18 4.844.531q2.062.532 4.187 1.704l-3.36 6.093c-.874-.476-1.73-.828-2.562-1.046a10.4 10.4 0 0 0-2.734-.344q-3.456 0-5.406 2.25-1.939 2.238-1.938 6.328c0 2.625.723 4.68 2.172 6.156q2.187 2.203 5.281 2.203.827 0 2.282-.39 1.45-.388 2.937-1.25Zm0 0" fill="#2D5A73" data-color="1"/>
        <path d="M358.301 87.373h-19.156q.232 3.188 2.14 4.734 1.904 1.547 5.266 1.547 1.248 0 3.469-.75c1.488-.508 2.93-1.313 4.328-2.406l4.016 5.14q-3.017 2.379-6.203 3.469-3.175 1.092-7.016 1.094-7.125 0-11.063-3.938c-2.617-2.633-3.921-6.304-3.921-11.015 0-4.676 1.382-8.489 4.156-11.438 2.781-2.945 6.289-4.422 10.531-4.422q6.106 0 9.781 3.688 3.67 3.689 3.672 10.719Zm-8.406-5.563c0-2.27-.43-3.89-1.281-4.86-.844-.968-2.118-1.452-3.813-1.452q-2.189.002-3.781 1.703-1.596 1.69-1.938 4.61Zm0 0" fill="#2D5A73" data-color="1"/>
        <path d="M30.707 58.504h27v27h-27z" fill="#CDCDCD" data-color="2"/>
        <path d="m404.516 99.482-4.719-12.797H381.97l-4.719 12.797h-3.125l15.532-41.14h2.687l15.344 41.14ZM391.891 65.06q-.316-.855-.516-1.687a43 43 0 0 0-.437-1.438h-.11q-.485 1.892-.952 3.063l-6.907 19.078h15.86Zm0 0" fill="#838383" data-color="3"/>
        <path d="M434.953 99.482v-5.328h-.125q-1.424 2.782-4.235 4.422-2.814 1.624-6.344 1.625-5.425 0-8.859-3.953-3.422-3.967-3.422-10.938c0-4.738 1.242-8.578 3.734-11.516q3.75-4.406 9.72-4.406 6.606.001 9.405 5.422h.125V55.998h2.641v43.484Zm0-17.875c0-2.727-.868-5.047-2.594-6.953q-2.596-2.86-6.985-2.86-4.629.001-7.64 3.547c-2.012 2.368-3.016 5.61-3.016 9.735q-.001 6.094 2.703 9.406 2.719 3.314 7 3.313 5.014 0 7.766-3.11 2.765-3.123 2.765-7.594Zm0 0" fill="#838383" data-color="3"/>
        <path d="M456.64 99.482h-2.405l-11.36-29.375h2.953l8.75 23.375q.621 1.706.89 3.078h.11q.374-1.81.828-2.953l9.047-23.5h2.86Zm0 0" fill="#838383" data-color="3"/>
        <path d="M474.921 62.7q-.862.001-1.531-.624-.656-.623-.656-1.61c0-.625.222-1.132.671-1.53q.671-.594 1.516-.595c.594 0 1.113.196 1.563.578q.67.58.671 1.547a2.13 2.13 0 0 1-.671 1.578q-.659.657-1.563.657m-1.297 36.782V70.107h2.64v29.375Zm0 0" fill="#838383" data-color="3"/>
        <path d="M484.158 98.185v-3.172q1.481 1.282 3.609 2.031 2.122.75 3.672.75c4.613 0 6.922-1.882 6.922-5.656q-.001-1.95-1.532-3.328-1.516-1.372-4.937-2.844-4.206-1.827-5.922-3.796-1.704-1.97-1.703-4.782-.001-3.576 2.734-5.781 2.747-2.217 6.766-2.219 3.779 0 6.484 1.547v2.984q-3.282-2.123-6.781-2.124c-1.93 0-3.484.507-4.672 1.515-1.187 1-1.781 2.305-1.781 3.906q0 2.097 1.125 3.407 1.124 1.3 4.937 3c3.063 1.375 5.164 2.652 6.313 3.828q1.717 1.77 1.719 4.687 0 3.503-2.625 5.781c-1.75 1.524-4.168 2.282-7.25 2.282q-4.237 0-7.078-2.016m0 0" fill="#838383" data-color="3"/>
        <path d="M520.279 100.2q-6.438.001-10.187-4.234c-2.493-2.82-3.735-6.488-3.735-11q-.001-7.312 3.906-11.437 3.92-4.138 10.329-4.14 6.279 0 9.921 4.109 3.64 4.094 3.641 11.359-.002 6.845-3.719 11.094-3.703 4.252-10.156 4.25m.203-28.406q-5.203.001-8.297 3.5-3.08 3.502-3.078 9.735-.001 5.766 3.016 9.266 3.013 3.501 8.234 3.5 5.311 0 8.172-3.438c1.914-2.3 2.875-5.488 2.875-9.562 0-4.188-.953-7.399-2.86-9.641q-2.847-3.359-8.062-3.36m0 0" fill="#838383" data-color="3"/>
        <path d="M555.306 72.857q-1.33-.937-3.094-.937-3.487.001-5.844 3.593-2.343 3.58-2.344 10.172v13.797h-2.578V70.107h2.578v6.516h.125q.997-3.357 3.172-5.22 2.186-1.874 5.063-1.874 1.621 0 2.922.516Zm0 0" fill="#838383" data-color="3"/>
        <path d="M568.012 105.482q-1.611 3.951-3.562 5.875-1.94 1.922-5.016 1.922-1.284-.001-2.297-.406v-2.641q1.03.405 2.406.406 3.528 0 5.578-4.875l2.72-6.515-11.126-29.141h2.953l8.86 23.922q.279.785.406 1.172.107.55.25.984h.125l.687-1.984 9.47-24.094h2.858Zm0 0" fill="#838383" data-color="3"/>
        <path d="M25.012 67.59h24v24h-24z" fill="#FFFFFF" data-color="4"/>
        <path d="M22.813 70.023h24v24h-24z" fill="#2D5A73" data-color="1"/>
        <path d="M18.93 79.105h18.75v18.75H18.93z" fill="#FFFFFF" data-color="4"/>
        <path d="M17.234 80.98h18.75v18.75h-18.75z" fill="#464650" data-color="5"/>
    </g>
</svg>
